<?xml version="1.0" encoding="utf-8"?>
<!-- Generator: Adobe Illustrator 19.0.0, SVG Export Plug-In . SVG Version: 6.00 Build 0)  -->
<svg version="1.1" xmlns="http://www.w3.org/2000/svg" xmlns:xlink="http://www.w3.org/1999/xlink" x="0px" y="0px"
	 viewBox="0 0 1080 1080" style="enable-background:new 0 0 1080 1080;" xml:space="preserve">
<style type="text/css">
	.st0{fill:#5B5E5F;}
	.st1{font-family:'Skating-Move';}
	.st2{font-size:648.1059px;}
	.st3{fill:#A6205F;}
	.st4{font-family:'RoundedElegance-Regular';}
	.st5{font-size:145.9768px;}
	.st6{fill:none;}
	.st7{fill:#9E1F63;stroke:#9E1F63;stroke-width:7;stroke-miterlimit:10;}
	.st8{fill:#9E1F63;}
</style>
<g id="Layer_1">
	<text id="XMLID_1_" transform="matrix(1.1344 0 0 1 193.0307 673.1031)" class="st0 st1 st2">Oh</text>
	<path id="XMLID_37_" class="st3" d="M831.1,731.9c-2-5.8-8.1-9.1-14.8-9.5c-8.1-0.4-15.2,5.5-19.8,10.7
		c-5.1,5.8-9.4,12.6-12.8,19.8c-4.1-15.3-12-29.5-27.9-36.3c-1.2-0.5-2.6-0.3-3.4,0.8c-12.4,16.7-8,39.1-1.7,57
		c6.9,19.5,18.6,39.6,35.5,54c1,0.8,2.7,1,3.7,0C802.2,816,810.4,799,818,784c4.8-9.6,9.1-19.4,12-29.5
		C832,747.3,833.6,739.2,831.1,731.9z M775.7,800.8c-8.4-19.8-22.8-40.4-21.2-61.7c9,16.9,14.1,35.1,20.7,52.8
		c0.1,2.3,0.4,4.5,1,6.7C776.1,799.4,775.9,800.1,775.7,800.8z M783.8,791.2c0.2-0.6,0.3-1.1,0.5-1.7c1.5,0.3,3.3-0.2,4-1.8
		c3.8-8.9,8.5-17.6,11.9-26.6c3.3-6.1,8.4-14.8,16.1-17.6c-2.9,9.3-7.6,18.4-12.5,26.9c-5.3,9.2-11.4,19-19.6,26.6
		C784.1,795.1,783.9,793.2,783.8,791.2z M776.5,775.1c-0.1-0.3-0.2-0.6-0.3-0.8c-4-11.5-10.6-23.9-11.9-36.2
		c9.4,9.4,12,20.8,13,32.9C777.1,772.4,776.8,773.7,776.5,775.1z M791,797.6c-1.6,3.3-3.1,6.5-4.6,9.8c-0.1,0.2-0.1,0.4-0.2,0.6
		c-0.5-1.6-0.8-3.3-1.1-5C787.2,801.4,789.2,799.5,791,797.6z M755.5,721.4c14.7,7.1,22.1,21.7,26,36.7c-0.1,0.2-0.1,0.3-0.2,0.5
		c-2.5-10.8-7.8-20.6-17.9-28.1c-1.8-1.3-4.6-0.5-4.7,1.7c-0.1,1.1,0,2.2,0,3.3c-1.1-1.9-2.2-3.9-3.3-5.8c-0.7-1.1-2.2-1.4-3.4-1
		C752.9,726.2,754,723.7,755.5,721.4z M750.6,756c4.2,16.7,14.6,32.8,21.1,48.8c-6.2-9-11.1-18.7-14.9-28.4
		C754.2,770,751.9,763.1,750.6,756z M824.3,755.6c-2.9,9.8-7.3,19.4-12,28.6c-6.6,13-14,28-24.5,39.2c-4.8-4.4-9.2-9.2-13-14.3
		c1,0.1,2.1-0.2,2.8-1c0.8-0.9,1.4-1.9,1.9-2.9c0.2,0.1,0.3,0.1,0.5,0.2c0.9,4.4,2.1,8.7,4.1,12.8c0.8,1.7,4.1,1.6,5,0
		c2.9-5.4,5.6-10.8,8.2-16.3c12.7-19.1,26.3-39.6,26.9-62c0-0.6-0.3-1.2-0.7-1.7c0.1-0.5,0.2-0.9,0.3-1.4c0.3-1.6-0.7-3-2.7-3.1
		c-0.4,0-0.8,0-1.2,0c-0.2-0.1-0.5-0.2-0.7-0.3c-15.3-3.8-25.5,11.3-31.8,25.3c1.2-3,2.5-5.9,4-8.7c4-7.7,9.4-16.2,17.7-21
		c6-3.4,14.6-2.2,17.2,4.1C829,740.1,826.4,748.7,824.3,755.6z"/>
	<text id="XMLID_4_" transform="matrix(1 0 0 1 309.5737 812.8809)" class="st3 st4 st5">cakes</text>
	<line id="XMLID_3_" class="st6" x1="248.3" y1="98.2" x2="308.4" y2="586"/>
	<line id="XMLID_5_" class="st6" x1="258" y1="160" x2="348" y2="160"/>
</g>
<g id="Layer_2">
	<g id="XMLID_2_">
		<g id="XMLID_6_">
			<g id="XMLID_95_">
				<line id="XMLID_99_" class="st7" x1="813.5" y1="282.2" x2="797" y2="700.5"/>
				<line id="XMLID_98_" class="st7" x1="752.5" y1="286.2" x2="781.9" y2="701.4"/>
				<line id="XMLID_97_" class="st7" x1="752.6" y1="290.4" x2="813.3" y2="286.5"/>
				<line id="XMLID_96_" class="st7" x1="778.6" y1="701.8" x2="800.2" y2="700.2"/>
			</g>
			<g id="XMLID_88_">
				<g id="XMLID_90_">
					<path id="XMLID_94_" class="st3" d="M773.3,372.1c2.3,16.3,5.3,32.4,8.9,48.5c0.7,3.1,5.5,1.8,4.8-1.3
						c-3.6-16-6.5-32.2-8.9-48.5C777.7,367.6,772.8,369,773.3,372.1L773.3,372.1z"/>
				</g>
			</g>
			<g id="XMLID_81_">
				<g id="XMLID_83_">
					<path id="XMLID_87_" class="st3" d="M788.3,380c3.3,33.9,5.2,68,5.5,102.1c0,3.2,5,3.2,5,0c0-35.6,0-71.2,0.1-106.9
						c-1.7,0-3.3,0-5,0c0,35.2,0,70.3,0,105.5c0,3.2,5,3.2,5,0c0-35.2,0-70.3,0-105.5c0-3.2-5-3.2-5,0c0,35.6,0,71.2-0.1,106.9
						c1.7,0,3.3,0,5,0c-0.3-34.1-2.2-68.2-5.5-102.1C793,376.8,788,376.8,788.3,380L788.3,380z"/>
				</g>
			</g>
			<g id="XMLID_74_">
				<g id="XMLID_76_">
					<path id="XMLID_80_" class="st3" d="M785,370.1c-1.6,10.3-5.1,20.1-7.2,30.2c-2.1,10-2.8,20.1-2.1,30.3c0.2,3.2,5.1,3.2,5,0
						c-0.5-19.1-0.7-38.1-0.5-57.2c0-3.2-5-3.2-5,0c-0.2,19.1,0,38.1,0.5,57.2c1.7,0,3.3,0,5,0c-0.7-10.4,0-20.6,2.4-30.8
						c2.2-9.5,5.3-18.8,6.8-28.4C790.3,368.3,785.5,367,785,370.1L785,370.1z"/>
				</g>
			</g>
			<g id="XMLID_67_">
				<g id="XMLID_69_">
					<path id="XMLID_73_" class="st8" d="M772.4,331.4c3.1,1.9,3.2,10.5,3.8,13.9c0.8,4.6,1.6,9.1,2.5,13.7c0.6,3.2,5.4,1.8,4.8-1.3
						c-1.2-6.5-2.3-13-3.5-19.5c-0.8-4.3-1.1-8.5-5-11C772.2,325.4,769.7,329.7,772.4,331.4L772.4,331.4z"/>
				</g>
			</g>
			<g id="XMLID_60_">
				<g id="XMLID_62_">
					<path id="XMLID_66_" class="st8" d="M760.8,317.2c25.4,47.1,11.3,104,15.6,154.9c0.6,6.7,5.3,12.5,12.5,12.5
						c6.3,0,13.1-5.7,12.5-12.5c-4.7-56.2,9.1-115.4-19-167.5c-3.2-5.9-11.4-7.8-17.1-4.5C759.2,303.6,757.5,311.2,760.8,317.2
						L760.8,317.2z"/>
				</g>
			</g>
			<g id="XMLID_53_">
				<g id="XMLID_55_">
					<path id="XMLID_59_" class="st8" d="M790.1,468.6c3.4-28.5,1-57.1-1.5-85.5c-1.3-14.3-2.5-28.6-3.8-42.9
						c-1.3-14.4-2.4-28.5-8.5-41.8c-3.6,6.3-7.2,12.5-10.8,18.8c7.8,0.2,15.7,0.7,23.5,0.6c7.5-0.1,15.6-1.9,20.6-8
						c-7-4.1-13.9-8.1-20.9-12.2c-5.6,26.5-8,53.4-8,80.5c0,25.4,1.2,51.1-3.8,76.2c-1.3,6.6,1.9,13.5,8.7,15.4
						c6.1,1.7,14.1-2.1,15.4-8.7c5.2-26.1,4.8-52.6,4.7-79c-0.1-26.2,1.7-52,7.1-77.7c1.2-5.5-0.8-11.2-5.7-14.1
						c-4.5-2.6-11.7-2.3-15.1,2c-0.5,0.6-1.3,1.5-0.2,0.5c0.7-0.5-1.6,0.1-0.8,0.1c-1.3,0-4.8,0-6.9-0.1c-6.2-0.2-12.3-0.3-18.5-0.5
						c-10.2-0.3-14.5,10.6-10.8,18.8c4.9,10.6,4.6,23.6,5.6,35c1.2,13.7,2.4,27.3,3.7,41c2.4,27.1,4.4,54.5,1.2,81.6
						c-0.8,6.7,6.3,12.5,12.5,12.5C785,481.1,789.3,475.3,790.1,468.6L790.1,468.6z"/>
				</g>
			</g>
			<g id="XMLID_46_">
				<g id="XMLID_48_">
					<path id="XMLID_52_" class="st8" d="M769.8,478.7c1.6,4.5,3.2,9,4.8,13.4c2.1,5.8,7.3,9.9,13.7,9c5.9-0.9,11.1-6,10.8-12.3
						c-0.1-1.7-0.2-3.5-0.2-5.2c-0.3-6.7-5.5-12.5-12.5-12.5c-7.3,0-11.9,5.7-12.5,12.5c-1.3,14.4-1.7,28.8-1.2,43.3
						c0.2,6.2,4.6,11.5,10.8,12.3c5.8,0.7,12.4-2.8,13.7-9c3.4-16.3,5-32.9,4.5-49.6c-8.3,0-16.7,0-25,0c1.5,17.4-2.8,34.8-2.9,52.2
						c0,18.1,0.6,36.2,0.9,54.3c0.3,16.1,25.3,16.1,25,0c-0.3-18.1-0.9-36.2-0.9-54.3c0-17.4,4.3-34.8,2.9-52.2
						c-0.6-6.7-5.3-12.5-12.5-12.5c-6.6,0-12.7,5.7-12.5,12.5c0.5,14.5-0.6,28.8-3.6,43c8.2,1.1,16.4,2.2,24.6,3.3
						c-0.5-14.4-0.1-28.9,1.2-43.3c-8.3,0-16.7,0-25,0c0.1,1.7,0.2,3.5,0.2,5.2c8.2-1.1,16.4-2.2,24.6-3.3c-1.6-4.5-3.2-9-4.8-13.4
						c-2.3-6.4-8.5-10.6-15.4-8.7C772.3,465,767.5,472.3,769.8,478.7L769.8,478.7z"/>
				</g>
			</g>
			<g id="XMLID_21_">
				<g id="XMLID_28_">
					<path id="XMLID_36_" class="st8" d="M766.4,486c0,2.3,0,4.6,0,6.9c0,3.2,1.4,6.6,3.7,8.8c2.2,2.2,5.7,3.8,8.8,3.7
						c3.2-0.1,6.6-1.2,8.8-3.7c2.2-2.4,3.7-5.5,3.7-8.8c0-2.3,0-4.6,0-6.9c0-3.2-1.4-6.6-3.7-8.8c-2.2-2.2-5.7-3.8-8.8-3.7
						c-3.2,0.1-6.6,1.2-8.8,3.7C767.8,479.6,766.4,482.6,766.4,486L766.4,486z"/>
				</g>
			</g>
			<g id="XMLID_14_">
				<g id="XMLID_16_">
					<path id="XMLID_20_" class="st8" d="M795,607.9c0-2.1,0-4.3,0-6.4c-5,0-10,0-15,0c0,4.2,0,8.4,0.1,12.6c5,0,10,0,15,0
						c-0.4-5.5,0.5-10.5,2.5-15.6c-4.9-0.7-9.8-1.3-14.7-2c0.6,8-1,16.1-1.8,24.1c-0.7,8.1-1.1,16.3-1.3,24.4
						c-0.4,16.3,0.2,32.6,0.7,49c0.3,9.6,15.3,9.7,15,0c-0.5-16.3-1.1-32.6-0.7-49c0.2-7.8,0.5-15.6,1.2-23.4
						c0.7-8.3,2.5-16.7,1.9-25c-0.7-8.7-11.6-9.9-14.7-2c-2.5,6.3-3.5,12.9-3.1,19.6c0.6,9.5,15.1,9.7,15,0c0-4.2,0-8.4-0.1-12.6
						c-0.1-9.6-15-9.7-15,0c0,2.1,0,4.3,0,6.4C780,617.6,795,617.6,795,607.9L795,607.9z"/>
				</g>
			</g>
			<g id="XMLID_7_">
				<g id="XMLID_9_">
					<path id="XMLID_13_" class="st8" d="M771.3,599.8c0,1,0.1,1.9,0.3,2.9c0.1,0.4,0.1,0.7,0.3,1.1c0.7,1.9,1.5,3.3,2.8,4.8
						c1.2,1.4,3.5,2.2,5.3,2.2c1.8,0,4-0.8,5.3-2.2c1.3-1.4,2.3-3.3,2.2-5.3c-0.1-0.7-0.2-1.3-0.3-2c-0.4-1.3-1-2.4-1.9-3.3
						c-0.1-0.1-0.2-0.2-0.3-0.3c0.4,0.5,0.8,1,1.2,1.5c-0.2-0.3-0.4-0.6-0.5-1c0.3,0.6,0.5,1.2,0.8,1.8c-0.2-0.4-0.3-0.8-0.3-1.3
						c0.1,0.7,0.2,1.3,0.3,2c0-0.3,0-0.6,0-0.9c0.1-1.9-0.9-4-2.2-5.3c-1.3-1.3-3.4-2.3-5.3-2.2c-1.9,0.1-4,0.7-5.3,2.2
						C772.2,596,771.4,597.8,771.3,599.8L771.3,599.8z"/>
				</g>
			</g>
		</g>
		<g id="XMLID_22_">
			<g id="XMLID_102_">
				<path id="XMLID_106_" class="st3" d="M798.2,445.5c1.8,2.4,0.6,8.4,0.6,11.3c0,3.5,0,7,0,10.5c0,7.3,0,14.7,0,22
					c0,3.2,5,3.2,5,0c0-8.6,0-17.2,0-25.8c0-4.1,0-8.3,0-12.4c0-2.7,0.5-5.8-1.3-8.1C800.6,440.4,796.3,442.9,798.2,445.5
					L798.2,445.5z"/>
			</g>
		</g>
		<g id="XMLID_23_">
			<g id="XMLID_109_">
				<path id="XMLID_113_" class="st3" d="M798.1,503c-0.3,20.9-0.6,41.9-0.9,62.8c1.7,0,3.3,0,5,0c0-24.7-0.1-49.4-0.1-74.1
					c0-2.1-2.8-3.4-4.3-1.8c-6.2,6.5-16.3,2.6-24.1,3.7c-5.4,0.7-10.5,4.2-9.3,10.2c0.2,1.1,1.4,1.8,2.4,1.8c2.2,0,0.8,17,0.8,19.1
					c0.1,6.5,0.6,12.9,1.3,19.3c0.4,3.2,4.6,3.2,5,0c0.6-5.4,1.2-10.8,1.8-16.3c0.4-3.2-4.6-3.2-5,0c-0.6,5.4-1.2,10.8-1.8,16.3
					c1.7,0,3.3,0,5,0c-1.1-9.6-1.6-19.3-1.2-29c0.2-5.2,2-14.5-5.9-14.4c0.8,0.6,1.6,1.2,2.4,1.8c-1.3-6.2,17.1-3.5,20.2-3.8
					c4.6-0.4,8.7-1.8,11.9-5.2c-1.4-0.6-2.8-1.2-4.3-1.8c0,24.7,0.1,49.4,0.1,74.1c0,3.2,5,3.2,5,0c0.3-20.9,0.6-41.9,0.9-62.8
					C803.2,499.8,798.2,499.8,798.1,503L798.1,503z"/>
			</g>
		</g>
		<g id="XMLID_24_">
			<g id="XMLID_116_">
				<path id="XMLID_120_" class="st3" d="M803.2,333c-0.6,20.3-1.3,40.5-1.9,60.8c-0.1,3.2,4.9,3.2,5,0c0.8-17.1,1.5-34.2,2-51.2
					c0.3-8.5,0.4-17.1,0.5-25.6c0-2.6,1.3-24-0.8-24.4c-0.4-1.4-0.7-2.8-1.1-4.2c-1.4,1.7-7.2,0.8-9,0.8c-2.6,0-5.2,0-7.7,0
					c-5.5,0-11,0-16.5,0c-5.5,0-18.2-2.6-19.6,5.3c-0.8,4.8-0.1,10.4,0,15.3c0.1,5.5,0.3,11,0.5,16.5c0.4,11.3,1.1,22.6,2.1,33.9
					c0.3,3.2,4.9,3.3,5,0c0.1-3.7,0.3-7.4,0.4-11.1c-1.6,0.2-3.3,0.4-4.9,0.7c1.3,7.1,0,14.3,0.7,21.5c0.7,7,2.8,13.7,3.4,20.7
					c1.4,14.4,0.2,28.8,1,43.2c0.2,3.9-0.6,10.8,2.9,13.6c3.6,2.9,10.5,4,15,4.3c5.8,0.3,11.4-1.7,16.7-3.8c4.2-1.7,8-4.1,9.1-8.8
					c0.7-3.1-4.1-4.5-4.8-1.3c-1.2,4.9-8.9,6.8-13.2,8c-5.8,1.6-11.2,0.7-16.8-1.2c-2.1-0.7-2.7-0.8-3.2-3c-0.2-1.2-0.3-2.6-0.4-3.8
					c-0.2-2.9-0.4-5.7-0.5-8.6c-0.2-5.8-0.1-11.5-0.1-17.3c0-10.8-0.2-21.6-2.4-32.1c-1.1-5.6-2.1-11-2-16.7
					c0.1-5.3,0.3-10.5-0.7-15.7c-0.5-2.9-4.8-2-4.9,0.7c-0.1,3.7-0.3,7.4-0.4,11.1c1.7,0,3.3,0,5,0c-0.8-10.3-1.5-20.7-2-31
					c-0.2-5.2-0.4-10.4-0.5-15.5c-0.1-4.9-1.1-10.8-0.2-15.5c-0.5-1.7,0.2-3,1.9-3.9c1,0,2.1-0.1,3.1,0c2.6,0,5.2,0,7.7,0
					c5.2,0,10.3,0,15.5,0c5.2,0,10.3,0.1,15.5,0c2.9,0,5.7,0.1,7.7-2.3c1.1-1.3,0.9-3.8-1.1-4.2c-7.2-1.4-5.5,9.4-5.5,13.4
					c0.1,10.2-0.1,20.4-0.3,30.6c-0.5,20.7-1.4,41.4-2.3,62.1c1.7,0,3.3,0,5,0c0.6-20.3,1.3-40.5,1.9-60.8
					C808.3,329.8,803.3,329.8,803.2,333L803.2,333z"/>
			</g>
		</g>
		<g id="XMLID_25_">
			<g id="XMLID_123_">
				<path id="XMLID_127_" class="st3" d="M769.3,502.3c0.9,2.9,1.8,5.8,2.8,8.6c1,3.1,5.8,1.7,4.8-1.3c-0.9-2.9-1.8-5.8-2.8-8.6
					C773.1,497.9,768.3,499.3,769.3,502.3L769.3,502.3z"/>
			</g>
		</g>
		<g id="XMLID_26_">
			<g id="XMLID_130_">
				<path id="XMLID_134_" class="st3" d="M794.2,613.7c0,9.9,0,19.8,0,29.7c0,4.6,0,9.2,0,13.8c0,2.6,0,5.3,0,7.9
					c0,1.8,0.8,6.1-0.6,7.5c-2.3,2.3,1.3,5.8,3.5,3.5c2.7-2.7,2-6.5,2-10.1c0-5.9,0-11.9,0-17.8c0-11.5,0-23.1,0-34.6
					C799.2,610.5,794.2,610.4,794.2,613.7L794.2,613.7z"/>
			</g>
		</g>
		<g id="XMLID_31_">
			<g id="XMLID_137_">
				<path id="XMLID_141_" class="st3" d="M774,608c1.6,5,3.4,10,4.9,15c1.5,4.8,1.4,9.7,2.5,14.5c1.6-0.4,3.2-0.9,4.8-1.3
					c-1.1-3.9-2.3-7.8-3.4-11.6c-0.9-3.1-5.7-1.8-4.8,1.3c1.1,3.9,2.3,7.8,3.4,11.6c0.9,3.1,5.5,1.8,4.8-1.3
					c-1.1-4.9-1-9.7-2.5-14.5c-1.6-5-3.3-10-4.9-15C777.8,603.6,773,604.9,774,608L774,608z"/>
			</g>
		</g>
	</g>
</g>
</svg>
